<?xml version="1.0" encoding="UTF-8" standalone="no"?>
<!-- Created with Inkscape (http://www.inkscape.org/) -->

<svg
   xmlns:dc="http://purl.org/dc/elements/1.1/"
   xmlns:cc="http://creativecommons.org/ns#"
   xmlns:rdf="http://www.w3.org/1999/02/22-rdf-syntax-ns#"
   xmlns:svg="http://www.w3.org/2000/svg"
   xmlns="http://www.w3.org/2000/svg"
   xmlns:sodipodi="http://sodipodi.sourceforge.net/DTD/sodipodi-0.dtd"
   xmlns:inkscape="http://www.inkscape.org/namespaces/inkscape"
   width="3.7309778mm"
   height="11.828216mm"
   viewBox="0 0 13.22 41.911"
   id="svg3426"
   version="1.1"
   inkscape:version="0.91 r13725"
   sodipodi:docname="person.svg">
  <defs
     id="defs3428" />
  <sodipodi:namedview
     id="base"
     pagecolor="#ffffff"
     bordercolor="#666666"
     borderopacity="1.0"
     inkscape:pageopacity="0.0"
     inkscape:pageshadow="2"
     inkscape:zoom="5.6"
     inkscape:cx="-16.581619"
     inkscape:cy="34.318931"
     inkscape:document-units="px"
     inkscape:current-layer="g3396"
     showgrid="false"
     fit-margin-top="0"
     fit-margin-left="0"
     fit-margin-right="0"
     fit-margin-bottom="0"
     inkscape:window-width="1920"
     inkscape:window-height="1029"
     inkscape:window-x="0"
     inkscape:window-y="25"
     inkscape:window-maximized="1" />
  <metadata
     id="metadata3431">
    <rdf:RDF>
      <cc:Work
         rdf:about="">
        <dc:format>image/svg+xml</dc:format>
        <dc:type
           rdf:resource="http://purl.org/dc/dcmitype/StillImage" />
        <dc:title></dc:title>
      </cc:Work>
    </rdf:RDF>
  </metadata>
  <g
     inkscape:label="Layer 1"
     inkscape:groupmode="layer"
     id="layer1"
     transform="translate(-1013.39,291.45044)">
    <g
       style="font-size:16px;font-family:'Times New Roman';fill:none;stroke:#000000"
       font-size="16"
       transform="matrix(1,0,0,-1,982.5,-307.99444)"
       id="g3396">
      <g
         transform="translate(0,-75)"
         id="g3398"
         style="fill:#d3cd00;fill-opacity:1">
        <g
           id="g3400"
           style="fill:#d3cd00;fill-opacity:1">
          <path
             style="fill:#d3cd00;stroke:none;stroke-width:0.354;stroke-linejoin:miter;stroke-miterlimit:79.84031677;marker-start:none;marker-end:none;fill-opacity:1"
             inkscape:connector-curvature="0"
             d="m 33.015,18.04 -10e-4,12.041 c -1.28,0.848 -2.124,2.301 -2.124,3.949 l 0,8.003 c 0,2.612 2.121,4.733 4.733,4.733 l 3.754,0 c 2.612,0 4.733,-2.121 4.733,-4.733 l 0,-8.003 c 0,-1.648 -0.845,-3.101 -2.125,-3.949 l 0,-12.041 c 0,-0.825 -0.67,-1.495 -1.495,-1.495 l -5.98,0 c -0.825,0 -1.495,0.67 -1.495,1.495 z m -0.531,35.499 c 0,2.714 2.203,4.917 4.917,4.917 2.714,0 4.917,-2.203 4.917,-4.917 0,-2.713 -2.203,-4.916 -4.917,-4.916 -2.714,0 -4.917,2.203 -4.917,4.916 z"
             stroke-miterlimit="79.8403193612775"
             id="path3402" />
        </g>
      </g>
    </g>
  </g>
</svg>
